<svg xmlns="http://www.w3.org/2000/svg" version="1.1" xmlns:xlink="http://www.w3.org/1999/xlink" xmlns:svgjs="http://svgjs.dev/svgjs" width="1500" height="1707" viewBox="0 0 1500 1707"><g transform="matrix(1,0,0,1,-0.9303267833292921,0)"><svg viewBox="0 0 246 280" data-background-color="#ffffff" preserveAspectRatio="xMidYMid meet" height="1707" width="1500" xmlns="http://www.w3.org/2000/svg" xmlns:xlink="http://www.w3.org/1999/xlink"><g id="tight-bounds" transform="matrix(1,0,0,1,0.15257359246601254,0)"><svg viewBox="0 0 245.6944996403056 280" height="280" width="245.6944996403056"><g><svg viewBox="0 0 278.2696 317.1234525561929" height="280" width="245.6944996403056"><g><svg viewBox="0 0 278.2696 317.1234525561929" height="317.1234525561929" width="278.2696"><g id="textblocktransform"><svg viewBox="0 0 278.2696 317.1234525561929" height="317.1234525561929" width="278.2696" id="textblock"><g><svg viewBox="0 0 278.2696 278.2696" height="278.2696" width="278.2696"><g transform="matrix(1,0,0,1,89.94321971048298,101.18735749185072)"><svg viewBox="0 0 98.38316057903407 75.89488501629857" height="75.89488501629857" width="98.38316057903407"><g id="icon-0"><svg xmlns="http://www.w3.org/2000/svg" xmlns:xlink="http://www.w3.org/1999/xlink" version="1.1" x="0" y="0" viewBox="0.04199999999999997 15.84225 99.95800000000001 77.10975000000002" enable-background="new 0 0 100 100" xml:space="preserve" width="98.38316057903407" height="75.89488501629857" class="icon-xg-0" data-fill-palette-color="accent" id="xg-0"><circle fill="#4a596d" cx="25.686" cy="77.131" r="1.2" data-fill-palette-color="accent"></circle><circle fill="#4a596d" cx="25.686" cy="81.173" r="1.2" data-fill-palette-color="accent"></circle><circle fill="#4a596d" cx="23.665" cy="75.109" r="1.2" data-fill-palette-color="accent"></circle><circle fill="#4a596d" cx="21.643" cy="77.131" r="1.2" data-fill-palette-color="accent"></circle><circle fill="#4a596d" cx="19.622" cy="83.194" r="1.2" data-fill-palette-color="accent"></circle><circle fill="#4a596d" cx="21.643" cy="81.173" r="1.2" data-fill-palette-color="accent"></circle><circle fill="#4a596d" cx="19.622" cy="79.152" r="1.2" data-fill-palette-color="accent"></circle><circle fill="#4a596d" cx="23.664" cy="79.152" r="1.2" data-fill-palette-color="accent"></circle><path fill="#4a596d" d="M31.553 67.264c-0.002-0.037-0.007-0.073-0.011-0.11-0.001-0.011-0.002-0.023-0.004-0.035-0.005-0.036-0.011-0.071-0.018-0.106-0.002-0.012-0.004-0.024-0.006-0.036-0.007-0.035-0.016-0.069-0.024-0.103-0.003-0.012-0.005-0.025-0.009-0.037-0.008-0.031-0.018-0.061-0.028-0.092-0.005-0.015-0.009-0.03-0.014-0.045-0.01-0.028-0.021-0.056-0.032-0.083-0.006-0.016-0.012-0.033-0.019-0.05-0.011-0.026-0.023-0.051-0.034-0.076-0.008-0.018-0.016-0.036-0.024-0.054-0.011-0.023-0.024-0.045-0.036-0.068-0.01-0.019-0.02-0.039-0.031-0.057-0.012-0.02-0.025-0.04-0.037-0.06-0.013-0.02-0.025-0.041-0.038-0.061-0.012-0.018-0.025-0.035-0.037-0.052-0.015-0.021-0.03-0.043-0.046-0.063-0.012-0.016-0.026-0.031-0.038-0.047-0.017-0.021-0.034-0.043-0.052-0.064-0.012-0.014-0.026-0.028-0.039-0.042-0.02-0.021-0.039-0.042-0.059-0.063-0.012-0.012-0.026-0.024-0.038-0.036-0.022-0.021-0.044-0.042-0.066-0.062-0.013-0.011-0.026-0.021-0.039-0.032-0.024-0.02-0.048-0.04-0.073-0.06-0.013-0.01-0.026-0.019-0.04-0.029-0.026-0.019-0.052-0.038-0.079-0.056-0.013-0.009-0.027-0.017-0.04-0.025-0.025-0.016-0.05-0.032-0.076-0.048-0.003-0.002-0.006-0.003-0.008-0.004-0.001-0.001-0.003-0.002-0.004-0.003L16.887 57.75c-0.673-0.385-1.5-0.385-2.173 0L1.145 65.505c-0.003 0.001-0.005 0.003-0.007 0.005-0.002 0.001-0.003 0.002-0.005 0.003-0.015 0.009-0.029 0.018-0.044 0.027-0.025 0.016-0.051 0.031-0.076 0.047-0.016 0.01-0.03 0.022-0.046 0.032-0.024 0.017-0.049 0.034-0.072 0.052-0.015 0.011-0.029 0.024-0.043 0.035-0.023 0.019-0.046 0.037-0.068 0.056-0.014 0.012-0.027 0.025-0.041 0.038C0.722 65.82 0.7 65.84 0.68 65.861c-0.013 0.013-0.025 0.027-0.038 0.04-0.02 0.021-0.04 0.042-0.059 0.064-0.012 0.014-0.023 0.029-0.035 0.043-0.019 0.022-0.038 0.044-0.055 0.067-0.011 0.015-0.021 0.03-0.032 0.045-0.017 0.023-0.034 0.047-0.05 0.071-0.01 0.015-0.019 0.031-0.029 0.046-0.016 0.025-0.031 0.049-0.046 0.074-0.009 0.016-0.017 0.032-0.026 0.048-0.014 0.026-0.028 0.051-0.041 0.078-0.008 0.016-0.015 0.032-0.022 0.049-0.013 0.027-0.025 0.053-0.037 0.081-0.007 0.017-0.013 0.034-0.02 0.052-0.011 0.027-0.021 0.054-0.031 0.081-0.006 0.017-0.011 0.035-0.016 0.053-0.009 0.028-0.018 0.055-0.025 0.083-0.005 0.018-0.008 0.036-0.013 0.054-0.007 0.029-0.014 0.057-0.02 0.085-0.004 0.02-0.007 0.04-0.01 0.06-0.005 0.027-0.01 0.054-0.014 0.082-0.003 0.024-0.005 0.048-0.007 0.073-0.002 0.024-0.005 0.047-0.007 0.071-0.002 0.037-0.003 0.074-0.004 0.111 0 0.012-0.001 0.024-0.001 0.035 0 0 0 0 0 0v0 15.592c0 0.785 0.421 1.511 1.102 1.901l13.569 7.763c0.337 0.193 0.712 0.289 1.088 0.289 0.38 0 0.759-0.099 1.099-0.295 0.028-0.016 0.055-0.034 0.082-0.051l13.475-7.709c0.682-0.39 1.102-1.115 1.102-1.901V67.41C31.558 67.361 31.556 67.312 31.553 67.264zM12.514 70.764h6.572l-1.061 0.606h-4.451L12.514 70.764zM21.562 69.349H11.495h-1.455l-1.06-0.606h2.516 11.128L21.562 69.349zM14.916 62.679h1.767l1.06 0.606h-3.888L14.916 62.679zM11.379 64.7h0.115 8.723l1.061 0.606h-9.783-1.176L11.379 64.7zM7.843 66.721h3.652 12.212v-0.026l1.106 0.633h-1.106H11.495 6.782L7.843 66.721zM4.421 71.181l9.189 5.256v10.548l-9.189-5.258V71.181zM27.179 74.019c-0.405 0.196-0.684 0.61-0.684 1.09 0 0.48 0.28 0.894 0.684 1.09v1.862c-0.405 0.196-0.684 0.61-0.684 1.09 0 0.48 0.28 0.894 0.684 1.09v1.482l-2.312 1.322c-0.073-0.6-0.583-1.065-1.203-1.065-0.67 0-1.213 0.543-1.213 1.213 0 0.392 0.187 0.74 0.476 0.962l-0.402 0.23c-0.221-0.235-0.534-0.383-0.883-0.383-0.67 0-1.213 0.543-1.213 1.213 0 0.118 0.018 0.233 0.049 0.341l-0.82 0.47c-0.013 0-0.025-0.002-0.037-0.002-0.46 0-0.859 0.256-1.065 0.633l-0.567 0.324v-0.618c0.479-0.162 0.824-0.614 0.824-1.148 0-0.534-0.345-0.986-0.824-1.148v-1.747c0.479-0.162 0.824-0.614 0.824-1.148 0-0.533-0.345-0.986-0.824-1.148v-1.747c0.479-0.162 0.824-0.614 0.824-1.148 0-0.369-0.166-0.7-0.427-0.922l0.395-0.226c0.218 0.21 0.514 0.339 0.84 0.339 0.67 0 1.213-0.543 1.213-1.213 0-0.097-0.013-0.19-0.034-0.28l0.932-0.533c0.376-0.028 0.704-0.226 0.907-0.519l1.901-1.086c-0.043 0.125-0.068 0.258-0.068 0.397 0 0.67 0.543 1.213 1.213 1.213 0.67 0 1.212-0.543 1.212-1.213 0-0.587-0.418-1.077-0.972-1.189l0.658-0.376c0.113 0.278 0.326 0.503 0.595 0.634V74.019z" data-fill-palette-color="accent"></path><circle fill="#4a596d" cx="58.026" cy="52.875" r="1.2" data-fill-palette-color="accent"></circle><circle fill="#4a596d" cx="60.047" cy="58.939" r="1.2" data-fill-palette-color="accent"></circle><circle fill="#4a596d" cx="58.026" cy="60.96" r="1.2" data-fill-palette-color="accent"></circle><circle fill="#4a596d" cx="58.026" cy="56.918" r="1.2" data-fill-palette-color="accent"></circle><circle fill="#4a596d" cx="60.047" cy="54.897" r="1.2" data-fill-palette-color="accent"></circle><circle fill="#4a596d" cx="60.047" cy="67.024" r="1.2" data-fill-palette-color="accent"></circle><circle fill="#4a596d" cx="58.026" cy="69.045" r="1.2" data-fill-palette-color="accent"></circle><circle fill="#4a596d" cx="58.026" cy="65.003" r="1.2" data-fill-palette-color="accent"></circle><circle fill="#4a596d" cx="60.047" cy="62.982" r="1.2" data-fill-palette-color="accent"></circle><circle fill="#4a596d" cx="60.047" cy="75.109" r="1.2" data-fill-palette-color="accent"></circle><circle fill="#4a596d" cx="58.026" cy="77.131" r="1.2" data-fill-palette-color="accent"></circle><circle fill="#4a596d" cx="58.026" cy="73.088" r="1.2" data-fill-palette-color="accent"></circle><circle fill="#4a596d" cx="60.047" cy="71.067" r="1.2" data-fill-palette-color="accent"></circle><circle fill="#4a596d" cx="58.026" cy="81.173" r="1.2" data-fill-palette-color="accent"></circle><circle fill="#4a596d" cx="60.047" cy="79.152" r="1.2" data-fill-palette-color="accent"></circle><circle fill="#4a596d" cx="56.005" cy="58.939" r="1.2" data-fill-palette-color="accent"></circle><circle fill="#4a596d" cx="53.983" cy="60.96" r="1.2" data-fill-palette-color="accent"></circle><circle fill="#4a596d" cx="53.983" cy="56.918" r="1.2" data-fill-palette-color="accent"></circle><circle fill="#4a596d" cx="56.005" cy="54.897" r="1.2" data-fill-palette-color="accent"></circle><circle fill="#4a596d" cx="56.005" cy="67.024" r="1.2" data-fill-palette-color="accent"></circle><circle fill="#4a596d" cx="53.983" cy="69.045" r="1.2" data-fill-palette-color="accent"></circle><circle fill="#4a596d" cx="53.983" cy="65.003" r="1.2" data-fill-palette-color="accent"></circle><circle fill="#4a596d" cx="56.005" cy="62.982" r="1.2" data-fill-palette-color="accent"></circle><circle fill="#4a596d" cx="56.005" cy="75.109" r="1.2" data-fill-palette-color="accent"></circle><circle fill="#4a596d" cx="53.983" cy="77.131" r="1.2" data-fill-palette-color="accent"></circle><circle fill="#4a596d" cx="53.983" cy="73.088" r="1.2" data-fill-palette-color="accent"></circle><circle fill="#4a596d" cx="56.005" cy="71.067" r="1.2" data-fill-palette-color="accent"></circle><circle fill="#4a596d" cx="56.005" cy="83.194" r="1.2" data-fill-palette-color="accent"></circle><circle fill="#4a596d" cx="53.983" cy="81.173" r="1.2" data-fill-palette-color="accent"></circle><circle fill="#4a596d" cx="56.005" cy="79.152" r="1.2" data-fill-palette-color="accent"></circle><path fill="#4a596d" d="M65.774 45.538c-0.003-0.04-0.007-0.079-0.012-0.119-0.001-0.008-0.001-0.017-0.003-0.025-0.005-0.041-0.012-0.081-0.02-0.122-0.001-0.007-0.002-0.014-0.003-0.02-0.008-0.039-0.017-0.077-0.027-0.115-0.002-0.008-0.004-0.016-0.006-0.024-0.01-0.035-0.021-0.07-0.032-0.105-0.003-0.01-0.006-0.021-0.01-0.031-0.011-0.033-0.024-0.065-0.037-0.097-0.005-0.012-0.009-0.024-0.014-0.036-0.012-0.029-0.026-0.058-0.039-0.086-0.007-0.014-0.013-0.029-0.02-0.043-0.013-0.026-0.027-0.051-0.041-0.077-0.009-0.016-0.017-0.032-0.026-0.048-0.013-0.023-0.028-0.045-0.042-0.068-0.011-0.018-0.022-0.036-0.033-0.053-0.013-0.02-0.028-0.039-0.042-0.059-0.014-0.019-0.027-0.038-0.041-0.057-0.013-0.017-0.027-0.034-0.041-0.051-0.016-0.02-0.032-0.04-0.049-0.06-0.013-0.014-0.026-0.028-0.039-0.042-0.019-0.021-0.039-0.042-0.059-0.063-0.012-0.012-0.025-0.023-0.037-0.035-0.023-0.022-0.045-0.043-0.068-0.064-0.011-0.01-0.023-0.019-0.035-0.029-0.025-0.021-0.051-0.043-0.077-0.063-0.01-0.008-0.021-0.015-0.032-0.023-0.028-0.021-0.057-0.042-0.086-0.062-0.009-0.006-0.019-0.012-0.029-0.018-0.029-0.019-0.057-0.037-0.087-0.054-0.003-0.002-0.006-0.003-0.01-0.005-0.001-0.001-0.002-0.001-0.003-0.002l-13.569-7.759c-0.673-0.385-1.5-0.385-2.173 0l-13.569 7.755c-0.003 0.002-0.006 0.004-0.009 0.005-0.001 0.001-0.002 0.001-0.003 0.002-0.011 0.007-0.022 0.014-0.033 0.02-0.029 0.018-0.059 0.036-0.088 0.055-0.013 0.009-0.025 0.018-0.038 0.027-0.027 0.019-0.054 0.037-0.08 0.057-0.013 0.01-0.026 0.021-0.039 0.032-0.024 0.02-0.049 0.039-0.072 0.06-0.013 0.012-0.026 0.024-0.039 0.037-0.022 0.02-0.044 0.04-0.065 0.061-0.013 0.013-0.026 0.028-0.039 0.041-0.02 0.021-0.04 0.041-0.058 0.063-0.013 0.015-0.025 0.03-0.037 0.045-0.018 0.022-0.036 0.043-0.053 0.065-0.012 0.016-0.023 0.032-0.034 0.048-0.016 0.022-0.033 0.045-0.048 0.068-0.011 0.016-0.021 0.033-0.031 0.05-0.015 0.023-0.03 0.046-0.044 0.07-0.01 0.017-0.019 0.034-0.028 0.051-0.013 0.024-0.027 0.049-0.039 0.074-0.009 0.017-0.016 0.035-0.024 0.053-0.012 0.025-0.024 0.051-0.035 0.077-0.007 0.018-0.014 0.037-0.021 0.055-0.01 0.026-0.021 0.052-0.029 0.078-0.006 0.018-0.011 0.037-0.017 0.055-0.008 0.027-0.017 0.054-0.025 0.081-0.005 0.018-0.009 0.037-0.013 0.056-0.007 0.028-0.014 0.056-0.02 0.084-0.004 0.02-0.007 0.04-0.01 0.06-0.005 0.027-0.01 0.054-0.014 0.082-0.003 0.024-0.005 0.048-0.007 0.072-0.002 0.024-0.006 0.048-0.007 0.072-0.003 0.037-0.003 0.074-0.004 0.11 0 0.012-0.001 0.024-0.001 0.035v0 0 37.318c0 0.785 0.421 1.511 1.102 1.9l13.569 7.763c0.337 0.193 0.712 0.289 1.087 0.289 0.38 0 0.759-0.099 1.099-0.295 0.028-0.016 0.055-0.034 0.083-0.052l13.475-7.709c0.682-0.39 1.102-1.115 1.102-1.9v-37.31C65.779 45.635 65.777 45.587 65.774 45.538zM52.246 49.644h-4.451l-1.06-0.606h6.572L52.246 49.644zM55.783 47.623H45.716 44.26l-1.06-0.606h2.516 11.128L55.783 47.623zM49.137 40.953h1.767l1.06 0.606h-3.888L49.137 40.953zM45.6 42.974h0.115 8.723l1.06 0.606h-9.783-1.176L45.6 42.974zM42.063 44.995h3.652 12.212v-0.026l1.106 0.633h-1.106H45.716h-4.713L42.063 44.995zM38.642 49.455l9.19 5.256v32.274l-9.19-5.258V49.455zM61.4 53.887v2.02c-0.328 0.217-0.544 0.589-0.544 1.011 0 0.422 0.216 0.794 0.544 1.011v2.02c-0.328 0.217-0.544 0.589-0.544 1.011 0 0.423 0.216 0.794 0.544 1.011v2.02c-0.328 0.217-0.544 0.589-0.544 1.011 0 0.423 0.216 0.794 0.544 1.011v2.02c-0.328 0.217-0.544 0.589-0.544 1.011 0 0.423 0.216 0.794 0.544 1.011v2.02c-0.328 0.217-0.544 0.589-0.544 1.011 0 0.423 0.216 0.794 0.544 1.011v2.02c-0.328 0.217-0.544 0.589-0.544 1.011 0 0.422 0.216 0.794 0.544 1.011v2.02c-0.328 0.217-0.544 0.589-0.544 1.011 0 0.272 0.09 0.522 0.241 0.724l-0.439 0.251c-0.179-0.105-0.388-0.166-0.611-0.166-0.669 0-1.211 0.542-1.212 1.21l-3.642 2.084c0.001-0.02 0.003-0.039 0.003-0.059 0-0.67-0.543-1.213-1.213-1.213-0.67 0-1.213 0.543-1.213 1.213 0 0.466 0.263 0.871 0.65 1.074l-0.458 0.262c-0.174-0.253-0.441-0.437-0.751-0.502v-1.668c0.55-0.115 0.964-0.602 0.964-1.187 0-0.584-0.414-1.072-0.964-1.187v-1.668c0.55-0.115 0.964-0.603 0.964-1.187 0-0.584-0.414-1.072-0.964-1.187v-1.668c0.55-0.115 0.964-0.603 0.964-1.187 0-0.585-0.414-1.072-0.964-1.187v-1.668c0.55-0.115 0.964-0.603 0.964-1.187 0-0.584-0.414-1.072-0.964-1.187v-1.668c0.55-0.115 0.964-0.603 0.964-1.187 0-0.585-0.414-1.072-0.964-1.187v-1.668c0.55-0.115 0.964-0.603 0.964-1.187 0-0.584-0.414-1.072-0.964-1.187v-1.668c0.55-0.115 0.964-0.603 0.964-1.187 0-0.585-0.414-1.072-0.964-1.187v-1.668c0.55-0.115 0.964-0.603 0.964-1.187 0-0.233-0.067-0.45-0.181-0.635l0.492-0.281c0.152 0.069 0.32 0.108 0.497 0.108 0.625 0 1.139-0.473 1.205-1.081l3.649-2.086c0.035 0.638 0.562 1.145 1.209 1.145 0.67 0 1.213-0.543 1.213-1.213 0-0.42-0.214-0.791-0.539-1.008l0.679-0.388v2.407c-0.328 0.217-0.544 0.589-0.544 1.011C60.856 53.298 61.072 53.67 61.4 53.887z" data-fill-palette-color="accent"></path><path fill="#4a596d" d="M100 25.791c0-0.786-0.421-1.511-1.103-1.901l-13.569-7.759c-0.673-0.385-1.5-0.385-2.173 0l-13.569 7.755c-0.682 0.39-1.103 1.115-1.103 1.901 0 0.003 0 0.006 0 0.01 0 0.003 0 0.005 0 0.008v57.194c0 0.785 0.421 1.511 1.102 1.901l13.569 7.763c0.337 0.193 0.712 0.289 1.088 0.289 0.379 0 0.759-0.099 1.098-0.296 0.02-0.012 0.04-0.025 0.06-0.037l13.48-7.545c0.692-0.387 1.12-1.118 1.12-1.911V25.977c0-0.031-0.002-0.062-0.003-0.093C99.998 25.853 100 25.822 100 25.791zM86.469 29.751h-4.453l-1.06-0.606h6.574L86.469 29.751zM90.006 27.73H79.937h-1.455l-1.06-0.606h2.516 11.13L90.006 27.73zM83.358 21.059h1.767l1.06 0.606h-3.888L83.358 21.059zM79.821 23.081h0.115 8.723l1.06 0.606h-9.783H78.76L79.821 23.081zM76.284 25.102h3.652 12.212v-0.026l1.106 0.633h-1.106H79.937h-4.713L76.284 25.102zM72.863 29.62l9.189 5.371v51.994l-9.189-5.258V29.62zM95.621 81.879l-0.527 0.295c0.315-0.216 0.523-0.578 0.527-0.989V81.879zM95.621 32.651c-0.007-0.664-0.546-1.201-1.212-1.201-0.67 0-1.213 0.543-1.213 1.213 0 0.67 0.543 1.213 1.213 1.213 0.666 0 1.205-0.537 1.212-1.201v1.108c-0.247 0.222-0.403 0.543-0.403 0.901 0 0.358 0.156 0.679 0.403 0.901v1.108c-0.007-0.664-0.546-1.201-1.212-1.201-0.67 0-1.213 0.543-1.213 1.213 0 0.67 0.543 1.213 1.213 1.213 0.666 0 1.205-0.537 1.212-1.201v1.108c-0.247 0.222-0.403 0.543-0.403 0.902 0 0.358 0.156 0.679 0.403 0.902v1.108c-0.007-0.664-0.546-1.201-1.212-1.201-0.67 0-1.213 0.543-1.213 1.213 0 0.67 0.543 1.213 1.213 1.213 0.666 0 1.205-0.537 1.212-1.201v1.108c-0.247 0.222-0.403 0.543-0.403 0.901 0 0.358 0.156 0.679 0.403 0.901v1.108c-0.007-0.664-0.546-1.201-1.212-1.201-0.67 0-1.213 0.543-1.213 1.213 0 0.67 0.543 1.213 1.213 1.213 0.666 0 1.205-0.537 1.212-1.201v1.108c-0.247 0.222-0.403 0.543-0.403 0.901 0 0.358 0.156 0.679 0.403 0.902v1.108c-0.007-0.664-0.546-1.201-1.212-1.201-0.67 0-1.213 0.543-1.213 1.213 0 0.67 0.543 1.213 1.213 1.213 0.666 0 1.205-0.537 1.212-1.201v1.108c-0.247 0.222-0.403 0.543-0.403 0.901 0 0.358 0.156 0.68 0.403 0.902v1.108c-0.007-0.664-0.546-1.201-1.212-1.201-0.67 0-1.213 0.543-1.213 1.213 0 0.67 0.543 1.213 1.213 1.213 0.666 0 1.205-0.537 1.212-1.201v1.108c-0.247 0.222-0.403 0.543-0.403 0.901 0 0.358 0.156 0.679 0.403 0.901v1.108c-0.007-0.664-0.546-1.201-1.212-1.201-0.67 0-1.213 0.543-1.213 1.213 0 0.67 0.543 1.213 1.213 1.213 0.666 0 1.205-0.537 1.212-1.201v1.108c-0.247 0.222-0.403 0.543-0.403 0.902 0 0.358 0.156 0.679 0.403 0.901v1.108c-0.007-0.664-0.546-1.201-1.212-1.201-0.67 0-1.213 0.543-1.213 1.213 0 0.67 0.543 1.213 1.213 1.213 0.666 0 1.205-0.537 1.212-1.201v1.108c-0.247 0.222-0.403 0.543-0.403 0.901 0 0.358 0.156 0.679 0.403 0.901v1.108c-0.007-0.664-0.546-1.201-1.212-1.201-0.67 0-1.213 0.543-1.213 1.213 0 0.67 0.543 1.213 1.213 1.213 0.666 0 1.205-0.537 1.212-1.201v1.108c-0.247 0.222-0.403 0.543-0.403 0.902 0 0.358 0.156 0.679 0.403 0.901v1.108c-0.007-0.664-0.546-1.201-1.212-1.201-0.67 0-1.213 0.543-1.213 1.213 0 0.67 0.543 1.213 1.213 1.213 0.666 0 1.205-0.537 1.212-1.201v1.108c-0.247 0.222-0.403 0.543-0.403 0.901 0 0.358 0.156 0.679 0.403 0.901v1.108c-0.007-0.664-0.546-1.201-1.212-1.201-0.67 0-1.213 0.543-1.213 1.213 0 0.67 0.543 1.213 1.213 1.213 0.666 0 1.205-0.537 1.212-1.201v1.108c-0.247 0.222-0.403 0.543-0.403 0.901 0 0.358 0.156 0.679 0.403 0.902v1.108c-0.007-0.664-0.546-1.201-1.212-1.201-0.67 0-1.213 0.543-1.213 1.213 0 0.67 0.543 1.213 1.213 1.213 0.666 0 1.205-0.537 1.212-1.201v1.108c-0.247 0.222-0.403 0.543-0.403 0.901 0 0.358 0.156 0.68 0.403 0.902v1.108c-0.007-0.664-0.546-1.201-1.212-1.201-0.67 0-1.213 0.543-1.213 1.213 0 0.67 0.543 1.213 1.213 1.213 0.178 0 0.347-0.039 0.499-0.108l-1.322 0.74c-0.086-0.586-0.589-1.036-1.198-1.036-0.67 0-1.213 0.543-1.213 1.213 0 0.373 0.169 0.707 0.434 0.93l-0.398 0.223c-0.218-0.212-0.516-0.344-0.845-0.344-0.67 0-1.213 0.543-1.213 1.213 0 0.092 0.011 0.18 0.03 0.266l-0.988 0.553c-0.323 0.04-0.606 0.206-0.799 0.447l-0.966 0.54v-0.599c0.619-0.055 1.105-0.574 1.105-1.207 0-0.633-0.486-1.153-1.105-1.207v-1.628c0.619-0.055 1.105-0.574 1.105-1.207 0-0.633-0.486-1.153-1.105-1.207v-1.628c0.619-0.055 1.105-0.574 1.105-1.207 0-0.633-0.486-1.153-1.105-1.207v-1.628c0.619-0.055 1.105-0.574 1.105-1.207 0-0.633-0.486-1.153-1.105-1.207v-1.628c0.619-0.055 1.105-0.574 1.105-1.207 0-0.633-0.486-1.153-1.105-1.207V66.21c0.619-0.055 1.105-0.574 1.105-1.207 0-0.633-0.486-1.153-1.105-1.207v-1.628c0.619-0.055 1.105-0.574 1.105-1.207 0-0.633-0.486-1.153-1.105-1.207v-1.628c0.619-0.055 1.105-0.574 1.105-1.207 0-0.633-0.486-1.153-1.105-1.207v-1.628c0.619-0.055 1.105-0.574 1.105-1.207 0-0.633-0.486-1.153-1.105-1.207V50.04c0.619-0.055 1.105-0.574 1.105-1.207 0-0.633-0.486-1.153-1.105-1.207v-1.628c0.619-0.055 1.105-0.574 1.105-1.207 0-0.633-0.486-1.153-1.105-1.207v-1.628c0.619-0.055 1.105-0.574 1.105-1.207 0-0.633-0.486-1.153-1.105-1.207v-1.628c0.619-0.055 1.105-0.574 1.105-1.207 0-0.633-0.486-1.153-1.105-1.207v-0.497l0.705-0.403c-0.002 0.029-0.004 0.057-0.004 0.086 0 0.67 0.543 1.213 1.213 1.213 0.669 0 1.213-0.543 1.213-1.213 0-0.476-0.275-0.886-0.673-1.085l0.47-0.268c0.217 0.328 0.589 0.545 1.012 0.545 0.67 0 1.213-0.543 1.213-1.213 0-0.191-0.046-0.371-0.124-0.532l0.577-0.33c0.113 0.035 0.232 0.053 0.356 0.053 0.572 0 1.051-0.397 1.178-0.93l2.025-1.157c-0.23 0.221-0.374 0.531-0.374 0.874 0 0.358 0.156 0.679 0.403 0.902V32.651z" data-fill-palette-color="accent"></path><circle fill="#4a596d" cx="92.387" cy="34.684" r="1.2" data-fill-palette-color="accent"></circle><circle fill="#4a596d" cx="90.366" cy="36.705" r="1.2" data-fill-palette-color="accent"></circle><circle fill="#4a596d" cx="92.387" cy="42.769" r="1.2" data-fill-palette-color="accent"></circle><circle fill="#4a596d" cx="90.366" cy="44.79" r="1.2" data-fill-palette-color="accent"></circle><circle fill="#4a596d" cx="90.366" cy="40.748" r="1.2" data-fill-palette-color="accent"></circle><circle fill="#4a596d" cx="92.387" cy="38.727" r="1.2" data-fill-palette-color="accent"></circle><circle fill="#4a596d" cx="92.387" cy="50.854" r="1.2" data-fill-palette-color="accent"></circle><circle fill="#4a596d" cx="90.366" cy="52.875" r="1.2" data-fill-palette-color="accent"></circle><circle fill="#4a596d" cx="90.366" cy="48.833" r="1.2" data-fill-palette-color="accent"></circle><circle fill="#4a596d" cx="92.387" cy="46.812" r="1.2" data-fill-palette-color="accent"></circle><circle fill="#4a596d" cx="92.387" cy="58.939" r="1.2" data-fill-palette-color="accent"></circle><circle fill="#4a596d" cx="90.366" cy="60.96" r="1.2" data-fill-palette-color="accent"></circle><circle fill="#4a596d" cx="90.366" cy="56.918" r="1.2" data-fill-palette-color="accent"></circle><circle fill="#4a596d" cx="92.387" cy="54.897" r="1.2" data-fill-palette-color="accent"></circle><circle fill="#4a596d" cx="92.387" cy="67.024" r="1.2" data-fill-palette-color="accent"></circle><circle fill="#4a596d" cx="90.366" cy="69.045" r="1.2" data-fill-palette-color="accent"></circle><circle fill="#4a596d" cx="90.366" cy="65.003" r="1.2" data-fill-palette-color="accent"></circle><circle fill="#4a596d" cx="92.387" cy="62.982" r="1.2" data-fill-palette-color="accent"></circle><circle fill="#4a596d" cx="92.387" cy="75.109" r="1.2" data-fill-palette-color="accent"></circle><circle fill="#4a596d" cx="90.366" cy="77.131" r="1.2" data-fill-palette-color="accent"></circle><circle fill="#4a596d" cx="90.366" cy="73.088" r="1.2" data-fill-palette-color="accent"></circle><circle fill="#4a596d" cx="92.387" cy="71.067" r="1.2" data-fill-palette-color="accent"></circle><circle fill="#4a596d" cx="90.366" cy="81.173" r="1.2" data-fill-palette-color="accent"></circle><circle fill="#4a596d" cx="92.387" cy="79.152" r="1.2" data-fill-palette-color="accent"></circle><circle fill="#4a596d" cx="88.345" cy="42.769" r="1.2" data-fill-palette-color="accent"></circle><circle fill="#4a596d" cx="88.345" cy="38.727" r="1.2" data-fill-palette-color="accent"></circle><circle fill="#4a596d" cx="88.345" cy="50.854" r="1.2" data-fill-palette-color="accent"></circle><circle fill="#4a596d" cx="88.345" cy="46.812" r="1.2" data-fill-palette-color="accent"></circle><circle fill="#4a596d" cx="88.345" cy="58.939" r="1.2" data-fill-palette-color="accent"></circle><circle fill="#4a596d" cx="88.345" cy="54.897" r="1.2" data-fill-palette-color="accent"></circle><circle fill="#4a596d" cx="88.345" cy="67.024" r="1.2" data-fill-palette-color="accent"></circle><circle fill="#4a596d" cx="88.345" cy="62.982" r="1.2" data-fill-palette-color="accent"></circle><circle fill="#4a596d" cx="88.345" cy="75.109" r="1.2" data-fill-palette-color="accent"></circle><circle fill="#4a596d" cx="88.345" cy="71.067" r="1.2" data-fill-palette-color="accent"></circle><circle fill="#4a596d" cx="88.345" cy="83.194" r="1.2" data-fill-palette-color="accent"></circle><circle fill="#4a596d" cx="88.345" cy="79.152" r="1.2" data-fill-palette-color="accent"></circle></svg></g></svg></g><g id="text-0"><path d="M23.118 104.605l-11.76-4.025c-0.513-0.176-0.961-0.437-1.344-0.783-0.383-0.346-0.681-0.742-0.895-1.188-0.215-0.439-0.345-0.917-0.39-1.434-0.039-0.515 0.027-1.023 0.198-1.523v0l2.257-6.592c0.165-0.481 0.412-0.909 0.74-1.284 0.335-0.373 0.717-0.672 1.146-0.898 0.433-0.217 0.899-0.355 1.399-0.413 0.494-0.06 0.987-0.014 1.479 0.14v0l-3.513-1.202 1.258-3.676 24.242 8.297c0.513 0.176 0.961 0.437 1.345 0.782 0.377 0.344 0.676 0.737 0.897 1.178 0.213 0.446 0.339 0.926 0.378 1.441 0.039 0.515-0.029 1.026-0.202 1.533v0l-3.976 11.615-3.676-1.258 3.976-11.615-5.12-1.753-3.508 10.249c-0.171 0.5-0.43 0.942-0.776 1.326-0.346 0.383-0.739 0.682-1.178 0.898-0.448 0.219-0.926 0.35-1.435 0.39-0.515 0.039-1.029-0.03-1.542-0.205zM24.373 100.938l3.508-10.249-11.76-4.025-3.508 10.249z" fill="#4a596d" data-fill-palette-color="primary"></path><path d="M66.375 26.078l-6.45 4.74 10.144 13.802-3.122 2.295-12.452-16.94 3.123-2.295 2.198 2.991c-0.289-0.427-0.478-0.886-0.568-1.375-0.1-0.491-0.111-0.975-0.033-1.453 0.082-0.473 0.25-0.925 0.505-1.356 0.259-0.426 0.602-0.796 1.028-1.109v0l3.32-2.439c0.437-0.321 0.904-0.539 1.402-0.652 0.502-0.108 0.997-0.127 1.485-0.057 0.494 0.066 0.964 0.23 1.409 0.492 0.445 0.262 0.828 0.612 1.15 1.048v0l2.102 2.861-3.139 2.307z" fill="#4a596d" data-fill-palette-color="primary"></path><path d="M128.961 18.033l-0.226-5.284c-0.023-0.542 0.057-1.051 0.24-1.527 0.183-0.476 0.443-0.898 0.78-1.266 0.33-0.367 0.728-0.666 1.194-0.896 0.466-0.224 0.963-0.347 1.491-0.369v0l10.009-0.43-0.173-4.054-12.673 0.543-0.167-3.892 12.673-0.543c0.542-0.023 1.054 0.057 1.537 0.239 0.483 0.19 0.905 0.45 1.266 0.781 0.36 0.331 0.656 0.729 0.886 1.194 0.224 0.466 0.347 0.969 0.37 1.511v0l0.733 17.113-3.892 0.167-0.152-3.547c-0.013 0.489-0.122 0.955-0.327 1.399-0.205 0.443-0.477 0.832-0.815 1.165-0.332 0.34-0.717 0.611-1.156 0.813-0.439 0.202-0.91 0.314-1.411 0.335v0l-6.148 0.264c-0.528 0.023-1.034-0.057-1.517-0.24-0.483-0.183-0.905-0.443-1.266-0.781-0.367-0.33-0.662-0.728-0.886-1.194-0.224-0.466-0.347-0.966-0.37-1.501zM132.607 12.583l0.226 5.284 10.01-0.429-0.227-5.284z" fill="#4a596d" data-fill-palette-color="primary"></path><path d="M222.679 32.535l-7.169 11.135c-0.29 0.45-0.649 0.82-1.077 1.109-0.428 0.289-0.881 0.485-1.359 0.589-0.487 0.106-0.986 0.115-1.494 0.03-0.509-0.086-0.989-0.274-1.44-0.564v0l-9.108-5.864-4.592 7.133-3.259-2.098 15.973-24.811 3.258 2.098-1.927 2.993c0.3-0.404 0.66-0.724 1.079-0.962 0.419-0.238 0.863-0.4 1.33-0.487 0.458-0.084 0.927-0.081 1.408 0.011 0.485 0.086 0.944 0.269 1.377 0.548v0l5.842 3.761c0.45 0.29 0.82 0.649 1.109 1.077 0.285 0.434 0.483 0.891 0.592 1.373 0.104 0.478 0.112 0.972 0.026 1.481-0.086 0.509-0.276 0.992-0.569 1.448zM203.135 35.703l9.108 5.864 7.169-11.136-9.109-5.863z" fill="#4a596d" data-fill-palette-color="primary"></path><path d="M268.528 100.126l-15.903 6.363-1.444-3.608 15.904-6.362-4.024-10.058-15.904 6.363-1.439-3.598 27.028-10.814 1.439 3.598-10.954 4.383c0.486-0.173 0.977-0.241 1.473-0.206 0.5 0.026 0.971 0.137 1.415 0.332 0.437 0.198 0.832 0.474 1.186 0.829 0.348 0.358 0.62 0.782 0.816 1.273v0l2.581 6.45c0.199 0.497 0.292 1.004 0.279 1.521-0.019 0.519-0.123 1.006-0.313 1.462-0.193 0.45-0.471 0.857-0.837 1.222-0.365 0.365-0.8 0.649-1.303 0.85z" fill="#4a596d" data-fill-palette-color="primary"></path><path d="M12.004 177.115l12.088-4.165c0.526-0.181 1.054-0.252 1.584-0.212 0.53 0.04 1.024 0.171 1.48 0.393 0.457 0.223 0.864 0.531 1.222 0.924 0.358 0.393 0.624 0.843 0.799 1.349v0l2.336 6.78c0.172 0.5 0.243 1.007 0.211 1.52-0.031 0.513-0.153 0.992-0.365 1.438-0.21 0.452-0.5 0.861-0.869 1.225-0.369 0.364-0.802 0.639-1.298 0.823v0l3.616-1.246 1.303 3.78-24.917 8.585c-0.526 0.181-1.054 0.252-1.584 0.213-0.528-0.033-1.017-0.162-1.467-0.388-0.457-0.223-0.864-0.531-1.222-0.923-0.358-0.393-0.627-0.853-0.809-1.379v0l-4.112-11.934 3.779-1.302 4.113 11.934 5.26-1.812-3.632-10.54c-0.175-0.506-0.242-1.025-0.202-1.555 0.04-0.53 0.171-1.024 0.393-1.481 0.216-0.455 0.521-0.861 0.915-1.218 0.393-0.358 0.853-0.627 1.378-0.809zM13.299 180.875l3.632 10.54 12.088-4.165-3.631-10.54z" fill="#4a596d" data-fill-palette-color="primary"></path><path d="M74.573 241.069l-6.65-4.881-10.425 14.202-3.206-2.354 12.796-17.432 3.206 2.353-2.263 3.083c0.335-0.41 0.728-0.74 1.18-0.989 0.452-0.249 0.925-0.406 1.419-0.472 0.494-0.066 0.991-0.038 1.49 0.084 0.499 0.122 0.967 0.344 1.405 0.665v0l3.419 2.51c0.448 0.329 0.802 0.719 1.06 1.169 0.264 0.454 0.437 0.935 0.519 1.441 0.083 0.506 0.064 1.019-0.055 1.537-0.119 0.518-0.344 1.001-0.673 1.449v0l-2.161 2.944-3.222-2.366z" fill="#4a596d" data-fill-palette-color="primary"></path><path d="M128.062 273.159l0.24-5.436c0.024-0.556 0.152-1.069 0.383-1.541 0.231-0.472 0.534-0.879 0.91-1.222 0.375-0.35 0.811-0.619 1.308-0.808 0.497-0.189 1.013-0.271 1.548-0.248v0l10.304 0.455 0.184-4.177-13.037-0.575 0.176-4.003 13.038 0.575c0.556 0.024 1.073 0.152 1.551 0.384 0.478 0.232 0.889 0.535 1.232 0.909 0.343 0.375 0.609 0.811 0.798 1.308 0.189 0.497 0.271 1.023 0.246 1.579v0l-0.776 17.6-4.004-0.177 0.161-3.648c-0.063 0.5-0.219 0.964-0.469 1.395-0.243 0.437-0.552 0.814-0.925 1.13-0.374 0.316-0.795 0.559-1.264 0.728-0.469 0.169-0.961 0.243-1.476 0.22v0l-6.331-0.279c-0.535-0.024-1.042-0.151-1.52-0.383-0.478-0.232-0.889-0.535-1.233-0.909-0.343-0.375-0.609-0.807-0.798-1.298-0.189-0.497-0.271-1.023-0.246-1.579zM132.275 267.898l-0.24 5.436 10.304 0.455 0.24-5.437z" fill="#4a596d" data-fill-palette-color="primary"></path><path d="M215.473 233.957l7.344 11.47c0.3 0.468 0.493 0.965 0.579 1.489 0.088 0.515 0.078 1.021-0.03 1.518-0.109 0.496-0.312 0.965-0.61 1.405-0.298 0.44-0.681 0.81-1.15 1.11v0l-9.388 6.012 4.706 7.349-3.349 2.145-16.367-25.561 3.349-2.144 1.975 3.083c-0.244-0.456-0.387-0.932-0.431-1.427-0.044-0.496-0.006-0.978 0.111-1.448 0.118-0.47 0.322-0.911 0.614-1.323 0.292-0.412 0.66-0.761 1.106-1.046v0l6.013-3.851c0.468-0.3 0.965-0.493 1.489-0.579 0.525-0.086 1.035-0.075 1.532 0.034 0.496 0.109 0.962 0.314 1.397 0.615 0.44 0.298 0.81 0.681 1.11 1.149zM210.063 253.594l9.388-6.011-7.345-11.47-9.388 6.012z" fill="#4a596d" data-fill-palette-color="primary"></path><path d="M256.061 172.766l16.334 6.601-1.498 3.707-16.334-6.602-4.177 10.335 16.333 6.602-1.49 3.687-27.763-11.221 1.49-3.688 11.26 4.552c-0.48-0.223-0.897-0.523-1.249-0.9-0.352-0.377-0.622-0.796-0.808-1.259-0.186-0.463-0.281-0.951-0.285-1.465-0.004-0.514 0.095-1.022 0.298-1.525v0l2.676-6.62c0.208-0.516 0.501-0.96 0.879-1.334 0.378-0.374 0.801-0.66 1.269-0.859 0.468-0.199 0.966-0.301 1.495-0.306 0.531-0.012 1.055 0.086 1.57 0.295z" fill="#4a596d" data-fill-palette-color="primary"></path><path d="M1.285 138.903c0-6.142 4.979-11.12 11.121-11.12 6.142 0 11.12 4.979 11.12 11.12 0 6.142-4.979 11.12-11.12 11.12-6.142 0-11.12-4.979-11.121-11.12z" fill="#4a596d" data-fill-palette-color="primary"></path><path d="M256.029 138.903c0-6.142 4.979-11.12 11.12-11.12 6.142 0 11.12 4.979 11.121 11.12 0 6.142-4.979 11.12-11.121 11.12-6.142 0-11.12-4.979-11.12-11.12z" fill="#4a596d" data-fill-palette-color="primary"></path></g><g id="text-1"></g></svg></g><g transform="matrix(1,0,0,1,53.1494936,296.46352)"><svg viewBox="0 0 171.97061280000003 20.65993255619284" height="20.65993255619284" width="171.97061280000003"><g transform="matrix(1,0,0,1,0,0)"><svg width="171.97061280000003" viewBox="2 -38 322.52 38.75" height="20.65993255619284" data-palette-color="#aab7c0"><path d="M10.5 0.45L10.5 0.45Q7.78 0.45 6.04-0.06 4.3-0.58 3.34-1.24 2.38-1.9 2-2.35L2-2.35 3.85-7.1Q4.95-6.2 6.66-5.33 8.38-4.45 10.65-4.45L10.65-4.45Q12.43-4.45 13.14-5.18 13.85-5.9 13.85-6.75L13.85-6.75Q13.85-7.93 12.23-8.88 10.6-9.83 8.45-10.75L8.45-10.75Q7.18-11.3 5.75-12.15 4.33-13 3.31-14.4 2.3-15.8 2.3-18L2.3-18Q2.3-21.38 4.76-23.39 7.23-25.4 11.75-25.4L11.75-25.4Q14.65-25.4 16.66-24.54 18.68-23.68 19.35-23L19.35-23 17.65-18.5Q16.68-19.25 15.18-19.93 13.68-20.6 11.95-20.6L11.95-20.6Q10.05-20.6 9.3-20.1 8.55-19.6 8.55-18.5L8.55-18.5Q8.55-17.28 9.89-16.49 11.23-15.7 13.1-14.95L13.1-14.95Q16.23-13.73 18.14-11.94 20.05-10.15 20.05-7.4L20.05-7.4Q20.05-5.35 19.1-3.56 18.15-1.78 16.05-0.66 13.95 0.45 10.5 0.45ZM33.75 0.75L33.75 0.75Q29.52 0.75 28.04-1.45 26.55-3.65 26.55-8.1L26.55-8.1 26.55-19.65 23.3-19.65 23.3-24.9 26.8-24.9 27.15-30.15 32.6-32.5 32.6-24.9 38.75-24.9 38.75-19.65 32.6-19.65 32.6-8.25Q32.6-6.08 33.21-5.24 33.82-4.4 34.9-4.4L34.9-4.4Q36-4.4 37.22-4.98 38.45-5.55 39.15-6.15L39.15-6.15 40.35-1.1Q39.57-0.55 38.34-0.14 37.1 0.28 35.84 0.51 34.57 0.75 33.75 0.75ZM50 0.7L50 0.7Q47.7 0.7 46.18-0.33 44.67-1.35 43.93-3.05 43.2-4.75 43.2-6.8L43.2-6.8Q43.2-7.95 43.78-9.33 44.37-10.7 45.87-11.95 47.37-13.2 50.09-14 52.82-14.8 57.09-14.8L57.09-14.8 57.09-15.95Q57.09-17.8 56.21-19.03 55.32-20.25 52.65-20.25L52.65-20.25Q50.7-20.25 48.83-19.59 46.97-18.93 46.09-17.95L46.09-17.95 44.09-22.75Q45.59-23.78 48.11-24.64 50.62-25.5 53.7-25.5L53.7-25.5Q57.4-25.5 59.45-24.38 61.5-23.25 62.32-21.19 63.15-19.13 63.15-16.35L63.15-16.35 63.15 0 57.8 0 57.34-3.55Q54.75 0.7 50 0.7ZM52.65-4.1L52.65-4.1Q53.77-4.1 55.06-5.01 56.34-5.93 57.09-7.35L57.09-7.35 57.09-10.9Q56.84-10.95 56.56-10.95 56.27-10.95 55.9-10.95L55.9-10.95Q54.52-10.95 53.01-10.64 51.5-10.33 50.45-9.55 49.4-8.78 49.4-7.4L49.4-7.4Q49.4-5.6 50.2-4.85 51-4.1 52.65-4.1ZM78.04 0.75L78.04 0.75Q73.82 0.75 72.33-1.45 70.84-3.65 70.84-8.1L70.84-8.1 70.84-19.65 67.59-19.65 67.59-24.9 71.09-24.9 71.44-30.15 76.89-32.5 76.89-24.9 83.04-24.9 83.04-19.65 76.89-19.65 76.89-8.25Q76.89-6.08 77.51-5.24 78.12-4.4 79.19-4.4L79.19-4.4Q80.29-4.4 81.52-4.98 82.74-5.55 83.44-6.15L83.44-6.15 84.64-1.1Q83.87-0.55 82.63-0.14 81.39 0.28 80.13 0.51 78.87 0.75 78.04 0.75ZM96.09-28.95L89.09-28.95 89.09-35.6 96.09-35.6 96.09-28.95ZM95.84 0L89.34 0 89.34-24.9 95.84-24.9 95.84 0ZM110.09 0.45L110.09 0.45Q107.36 0.45 105.63-0.06 103.89-0.58 102.93-1.24 101.96-1.9 101.59-2.35L101.59-2.35 103.44-7.1Q104.54-6.2 106.25-5.33 107.96-4.45 110.24-4.45L110.24-4.45Q112.01-4.45 112.73-5.18 113.44-5.9 113.44-6.75L113.44-6.75Q113.44-7.93 111.81-8.88 110.19-9.83 108.04-10.75L108.04-10.75Q106.76-11.3 105.34-12.15 103.91-13 102.9-14.4 101.89-15.8 101.89-18L101.89-18Q101.89-21.38 104.35-23.39 106.81-25.4 111.34-25.4L111.34-25.4Q114.24-25.4 116.25-24.54 118.26-23.68 118.94-23L118.94-23 117.24-18.5Q116.26-19.25 114.76-19.93 113.26-20.6 111.54-20.6L111.54-20.6Q109.64-20.6 108.89-20.1 108.14-19.6 108.14-18.5L108.14-18.5Q108.14-17.28 109.48-16.49 110.81-15.7 112.69-14.95L112.69-14.95Q115.81-13.73 117.73-11.94 119.64-10.15 119.64-7.4L119.64-7.4Q119.64-5.35 118.69-3.56 117.74-1.78 115.64-0.66 113.54 0.45 110.09 0.45ZM133.34 0.75L133.34 0.75Q129.11 0.75 127.62-1.45 126.14-3.65 126.14-8.1L126.14-8.1 126.14-19.65 122.89-19.65 122.89-24.9 126.39-24.9 126.74-30.15 132.19-32.5 132.19-24.9 138.34-24.9 138.34-19.65 132.19-19.65 132.19-8.25Q132.19-6.08 132.8-5.24 133.41-4.4 134.49-4.4L134.49-4.4Q135.59-4.4 136.81-4.98 138.04-5.55 138.74-6.15L138.74-6.15 139.94-1.1Q139.16-0.55 137.92-0.14 136.69 0.28 135.42 0.51 134.16 0.75 133.34 0.75ZM151.38-28.95L144.38-28.95 144.38-35.6 151.38-35.6 151.38-28.95ZM151.13 0L144.63 0 144.63-24.9 151.13-24.9 151.13 0ZM168.38 0.6L168.38 0.6Q164.41 0.6 161.91-1.19 159.41-2.98 158.22-5.93 157.03-8.88 157.03-12.35L157.03-12.35Q157.03-15.8 158.36-18.8 159.68-21.8 162.28-23.65 164.88-25.5 168.73-25.5L168.73-25.5Q170.88-25.5 172.63-25.05 174.38-24.6 176.03-23.25L176.03-23.25 173.98-17.95Q173.23-19.07 171.79-19.69 170.36-20.3 169.08-20.3L169.08-20.3Q163.63-20.3 163.63-12.4L163.63-12.4Q163.63-8.25 164.99-6.38 166.36-4.5 169.08-4.5L169.08-4.5Q170.88-4.5 172.26-5.19 173.63-5.88 174.33-6.65L174.33-6.65 176.23-2.2Q175.53-1.45 173.48-0.43 171.43 0.6 168.38 0.6ZM197.03 0L190.63 0 190.63-24.9 196.38-24.9 196.53-21.6Q197.5-23.1 199.24-24.3 200.98-25.5 203.88-25.5L203.88-25.5Q206.4-25.5 208.08-24.38 209.75-23.25 210.6-21.2L210.6-21.2Q211.55-22.78 213.34-24.14 215.13-25.5 218.33-25.5L218.33-25.5Q222.08-25.5 223.93-23.1 225.78-20.7 225.78-16.45L225.78-16.45 225.78 0 219.43 0 219.43-15.8Q219.43-17.88 218.63-19.16 217.83-20.45 216.03-20.45L216.03-20.45Q214.28-20.45 212.85-19.16 211.43-17.88 211.43-15.8L211.43-15.8 211.43 0 205.03 0 205.03-15.8Q205.03-17.88 204.11-19.21 203.2-20.55 201.43-20.55L201.43-20.55Q199.63-20.55 198.33-19.21 197.03-17.88 197.03-15.8L197.03-15.8 197.03 0ZM237.97 0.7L237.97 0.7Q235.67 0.7 234.16-0.33 232.65-1.35 231.91-3.05 231.17-4.75 231.17-6.8L231.17-6.8Q231.17-7.95 231.76-9.33 232.35-10.7 233.85-11.95 235.35-13.2 238.07-14 240.8-14.8 245.07-14.8L245.07-14.8 245.07-15.95Q245.07-17.8 244.19-19.03 243.3-20.25 240.62-20.25L240.62-20.25Q238.67-20.25 236.81-19.59 234.95-18.93 234.07-17.95L234.07-17.95 232.07-22.75Q233.57-23.78 236.09-24.64 238.6-25.5 241.67-25.5L241.67-25.5Q245.37-25.5 247.42-24.38 249.47-23.25 250.3-21.19 251.12-19.13 251.12-16.35L251.12-16.35 251.12 0 245.77 0 245.32-3.55Q242.72 0.7 237.97 0.7ZM240.62-4.1L240.62-4.1Q241.75-4.1 243.04-5.01 244.32-5.93 245.07-7.35L245.07-7.35 245.07-10.9Q244.82-10.95 244.54-10.95 244.25-10.95 243.87-10.95L243.87-10.95Q242.5-10.95 240.99-10.64 239.47-10.33 238.42-9.55 237.37-8.78 237.37-7.4L237.37-7.4Q237.37-5.6 238.17-4.85 238.97-4.1 240.62-4.1ZM263.92 0L258.02 0 258.02-38 263.92-38 263.92-19.35 263.72-13.5 271.37-24.9 278.47-24.9 269.77-13.45 279.32 0 271.77 0 263.72-12.05 263.92-5.95 263.92 0ZM293.27 0.65L293.27 0.65Q289.07 0.65 286.49-1.11 283.92-2.88 282.74-5.79 281.57-8.7 281.57-12.15L281.57-12.15Q281.57-15.78 282.91-18.81 284.24-21.85 286.83-23.68 289.42-25.5 293.17-25.5L293.17-25.5Q298.77-25.5 300.99-22.26 303.22-19.03 303.22-13.1L303.22-13.1Q303.22-12.58 303.19-11.78 303.17-10.98 303.12-10.4L303.12-10.4 288.12-10.4Q288.27-7.45 289.78-5.78 291.29-4.1 294.32-4.1L294.32-4.1Q295.87-4.1 297.64-4.79 299.42-5.48 300.27-6.45L300.27-6.45 302.27-1.7Q301.27-1.03 299.11-0.19 296.94 0.65 293.27 0.65ZM288.07-14.3L288.07-14.3 296.87-14.3Q296.87-16.93 296.41-18.31 295.94-19.7 295.14-20.23 294.34-20.75 293.32-20.75L293.32-20.75Q290.77-20.75 289.49-18.86 288.22-16.98 288.07-14.3ZM315.12 0L308.87 0 308.87-24.9 314.52-24.9 314.82-20.5Q315.22-21.48 316.05-22.58 316.89-23.68 318.38-24.44 319.87-25.2 322.22-25.2L322.22-25.2Q322.94-25.2 323.49-25.1 324.04-25 324.52-24.8L324.52-24.8 323.12-18.25Q322.32-19.05 320.67-19.05L320.67-19.05Q318.74-19.05 317.52-18.26 316.29-17.48 315.7-16.5 315.12-15.53 315.12-15L315.12-15 315.12 0Z" opacity="1" transform="matrix(1,0,0,1,0,0)" fill="#aab7c0" class="slogan-text-1" data-fill-palette-color="secondary" id="text-1"></path></svg></g></svg></g></svg></g></svg></g></svg></g><defs></defs></svg><rect width="245.6944996403056" height="280" fill="none" stroke="none" visibility="hidden"></rect></g></svg></g></svg>